<svg xmlns="http://www.w3.org/2000/svg" viewBox="0 0 115.75 115.75">
  <g id="Layer_2" data-name="Layer 2">
    <g id="Capa_1" data-name="Capa 1">
      <g>
        <g>
          <path d="M67.16,109.2c-.48-2.31-4.62,0-4.62,0s-.91-3-2.38-4.19S55,100.68,55,100.68s-6.83-1.92-9.48-6.5,1-12.27,3.16-15.16,0-6,0-6L45,69.14a45.73,45.73,0,0,1-10.5-.34C27.87,68,18.79,55.68,18.79,55.68a6.54,6.54,0,0,0-3.51-4.57c-3-1.45,2.55,14.19,2.55,14.19s-5.72-4.58-5.78-7.94-2.64-10.1-2.16-14-1-2.65-1.18-7.22S15.11,19,15.27,18.71a57.89,57.89,0,0,0,54.56,95.8l-1.7-1.8A22.19,22.19,0,0,1,67.16,109.2Z" style="fill: #04b8ff"/>
          <path d="M115.75,57.88A58.18,58.18,0,0,0,114,43.69l-6.65-9.43-1.44-6.5V25.59A58.27,58.27,0,0,0,90.07,9.78c-.55-.37-1.11-.72-1.66-1.07A57.83,57.83,0,0,0,73.77,2.22l-.83,1.24L68.61,6.59,72,10.42s2.88,2.42,2.64,3.38-.72,3.61-.72,3.61l-1.44,4.1-.72,4.81,1.68,5.53S71,34.5,69.81,34s-1.2-4.09-1.2-4.09L62.54,27,55,27.52l-6.32,1.69L45.5,33.3l-4.33,7.94a36.42,36.42,0,0,1,1,5c.25,2.41,5.06,4.58,9.22,7.72s4.74-4.11,6.53-5.31,6.64,1,7.4,2.89.2,1.92-1,3.85-6.73,6-6.73,6L57,63.69c-.56,2.24,3.94-.07,5.57,1.61s8-2.34,8-2.34,6.74-1.75,9.63-2.27,6,2.21,9,4.63,2.46,7,2.46,7a66.17,66.17,0,0,0-.11,8,54.09,54.09,0,0,1,0,6.73A75,75,0,0,1,90,95.15c-.73,2.4-3.61,6.25-3.61,6.25l-1.77,7.78A57.84,57.84,0,0,0,115.75,57.88Z" style="fill: #04b8ff"/>
          <path d="M90,95.15A75,75,0,0,0,91.47,87a54.09,54.09,0,0,0,0-6.73,66.17,66.17,0,0,1,.11-8s.48-4.54-2.46-7-6.07-5.16-9-4.63S70.53,63,70.53,63s-6.35,4-8,2.34-6.13.63-5.57-1.61l.57-2.24s5.53-4.09,6.73-6,1.78-1.93,1-3.85-5.62-4.09-7.4-2.89S55.51,57.15,51.35,54s-9-5.31-9.22-7.72a36.42,36.42,0,0,0-1-5L45.5,33.3l3.16-4.09L55,27.52,62.54,27l6.07,2.89s0,3.61,1.2,4.09,3.61-2.17,3.61-2.17l-1.68-5.53.72-4.81,1.44-4.1s.48-2.64.72-3.61S72,10.42,72,10.42L68.61,6.59l4.33-3.13.83-1.24a57.9,57.9,0,0,0-58.5,16.49c-.16.32-6.77,13-6.56,17.48s1.66,3.37,1.18,7.22,2.1,10.6,2.16,14,5.78,7.94,5.78,7.94-5.57-15.64-2.55-14.19a6.54,6.54,0,0,1,3.51,4.57S27.87,68,34.52,68.8a45.73,45.73,0,0,0,10.5.34L48.66,73s2.2,3.12,0,6-5.8,10.59-3.16,15.16,9.48,6.5,9.48,6.5,3.71,3.13,5.18,4.33,2.38,4.19,2.38,4.19,4.14-2.31,4.62,0a22.19,22.19,0,0,0,1,3.51l1.7,1.8a57.45,57.45,0,0,0,14.82-5.33l1.77-7.78S89.3,97.55,90,95.15Z" style="fill: #7f2"/>
          <path d="M107.35,34.26,114,43.69a57.69,57.69,0,0,0-8.09-18.1v2.17Z" style="fill: #7f2"/>
        </g>
        <path d="M65,63.52C64,60.64,62.14,62,59.8,63c-.3.13-.62.25-.94.36a6.3,6.3,0,0,1-1.89.33,6.1,6.1,0,0,1-2-.37c-.32-.11-.64-.23-.94-.36-2.29-1-4.14-2.28-5.13.56S50.06,68,52.39,68.8c.32.12.64.22,1,.31a19.82,19.82,0,0,0,3.63.66,19.31,19.31,0,0,0,3.53-.63c.31-.08.63-.19,1-.3C63.82,68,66,66.43,65,63.52Z" style="fill: #ff8db3"/>
        <path d="M26.09,57.25S30.83,44.7,38.66,55.7" style="fill: none;stroke: #1e120d;stroke-linecap: round;stroke-miterlimit: 10;stroke-width: 2px"/>
        <path d="M72.18,57.25S76.92,44.7,84.74,55.7" style="fill: none;stroke: #1e120d;stroke-linecap: round;stroke-miterlimit: 10;stroke-width: 2px"/>
      </g>
    </g>
  </g>
</svg>
