<svg xmlns="http://www.w3.org/2000/svg" viewBox="0 0 132.72 132.71">
  <g style="isolation: isolate">
    <g id="Layer_2" data-name="Layer 2">
      <g id="Capa_1" data-name="Capa 1">
        <g>
          <g>
            <g>
              <path d="M68.09,105.5a214,214,0,0,0,36.05-8.79c8.52-2.75,17.43-5.48,25.33-9.88a66.29,66.29,0,0,0,2.67-11.92c-8.5,5.29-18.14,8.48-27.67,11.62-12.94,4.26-26.14,7.82-39.66,9.61C44,98.89,22.17,97,3.43,87.38c.6,1.8,1.26,3.57,2,5.29C6,94,6.64,95.29,7.29,96.57,25.74,106.48,47.41,108.39,68.09,105.5Z" style="fill: #b28e54"/>
              <path d="M65.19,90.62a213.1,213.1,0,0,0,36.06-8.78c10.8-3.49,22.22-6.93,31.41-13.82,0-.56,0-1.11,0-1.67a65.17,65.17,0,0,0-.42-7.43c-8.53,5.65-18.09,9.12-27.91,12.38a208.37,208.37,0,0,1-37.71,9.21C43.91,83.59,19.88,81.11.07,69A65,65,0,0,0,1.42,80C20.49,91.39,43.39,93.68,65.19,90.62Z" style="fill: #f4cc90"/>
              <path d="M65.25,14A201.31,201.31,0,0,0,95.89,7a65.09,65.09,0,0,0-11.32-4.4,66.29,66.29,0,0,0-57.84,10.6A112.68,112.68,0,0,0,65.25,14Z" style="fill: #f4cc90"/>
              <path d="M64,60.85c11.32-1.56,22.43-4.7,33.27-8.25C106.08,49.72,116,47,123.29,41a13.15,13.15,0,0,1,3.48-2.06,65.11,65.11,0,0,0-3.51-6.67c-7.37,4.53-15.65,7.35-23.9,10.09-12,4-24.19,7.37-36.72,9.08-19.83,2.7-40.61.83-58.3-8.67-.68,1.77-1.29,3.58-1.81,5.43A9.38,9.38,0,0,1,7.38,49.9C24,61.13,44.39,63.55,64,60.85Z" style="fill: #b28e54"/>
              <path d="M65.19,31.32a214.06,214.06,0,0,0,36.06-8.78c3.74-1.21,7.55-2.42,11.32-3.76a66.58,66.58,0,0,0-9.32-7.57c-.46-.31-.93-.6-1.4-.9a213.16,213.16,0,0,1-37.1,8.79c-14.27,1.88-29,1.55-42.91-1.93-1.5,1.36-2.95,2.78-4.33,4.28s-2.87,3.29-4.19,5C29.64,32.79,47.76,33.76,65.19,31.32Z" style="fill: #b28e54"/>
              <path d="M107.36,101.4c-12.94,4.26-26.13,7.82-39.66,9.61-18.57,2.45-37.93,1.17-55.2-5.92a66.75,66.75,0,0,0,15.7,15.54c11.53,3,23.8,3.29,35.79,1.64,11.32-1.56,22.43-4.7,33.27-8.24,7.84-2.57,16.53-5,23.5-9.74a67.15,67.15,0,0,0,5.76-10A186.26,186.26,0,0,1,107.36,101.4Z" style="fill: #b28e54"/>
              <path d="M62,46.5a195.44,195.44,0,0,0,34.27-8.38c8.26-2.7,16.87-5.38,24.32-10-1.25-1.77-2.58-3.48-4-5.11-4,1.51-8.06,2.85-12.11,4.19a219.24,219.24,0,0,1-39.66,9.6C46.42,39.26,27.26,38,10.13,31.12a66.48,66.48,0,0,0-3.82,7C23.2,47.28,43,49.1,62,46.5Z" style="fill: #b28e54"/>
              <path d="M62.64,51.43c12.53-1.71,24.74-5.09,36.72-9.08,8.25-2.74,16.53-5.56,23.9-10.09-.59-1-1.21-2-1.85-2.93-.27-.4-.56-.79-.84-1.18-7.45,4.59-16.06,7.27-24.32,10A195.44,195.44,0,0,1,62,46.5c-19,2.6-38.78.78-55.67-8.39q-1.07,2.28-2,4.65C22,52.26,42.81,54.13,62.64,51.43Z" style="fill: #e2b97f"/>
              <path d="M67.7,111c13.53-1.79,26.72-5.35,39.66-9.61a186.26,186.26,0,0,0,19.16-7.1,67,67,0,0,0,3-7.47c-7.9,4.4-16.81,7.13-25.33,9.88a214,214,0,0,1-36,8.79c-20.68,2.89-42.35,1-60.8-8.93C8.13,98.2,9,99.8,10,101.35q1.18,1.91,2.51,3.74C29.77,112.18,49.13,113.46,67.7,111Z" style="fill: #e2b97f"/>
              <path d="M64.81,96.14c13.52-1.79,26.72-5.35,39.66-9.61,9.53-3.14,19.17-6.33,27.67-11.62a65.31,65.31,0,0,0,.52-6.89c-9.19,6.89-20.61,10.33-31.41,13.82a213.1,213.1,0,0,1-36.06,8.78c-21.8,3.06-44.7.77-63.77-10.6a64.93,64.93,0,0,0,2,7.36C22.17,97,44,98.89,64.81,96.14Z" style="fill: #a3727e"/>
              <path d="M64.81,36.83a219.24,219.24,0,0,0,39.66-9.6c4-1.34,8.11-2.68,12.11-4.19-1.28-1.48-2.61-2.9-4-4.26-3.77,1.34-7.58,2.55-11.32,3.76a214.06,214.06,0,0,1-36.06,8.78c-17.43,2.44-35.55,1.47-51.87-4.83-1.13,1.5-2.2,3-3.19,4.63C27.26,38,46.42,39.26,64.81,36.83Z" style="fill: #a3727e"/>
              <path d="M64.75,19.1a213.16,213.16,0,0,0,37.1-8.79l-.5-.32Q98.7,8.34,95.89,7A201.31,201.31,0,0,1,65.25,14a112.68,112.68,0,0,1-38.52-.88q-2.53,1.89-4.89,4C35.74,20.65,50.48,21,64.75,19.1Z" style="fill: #e2b97f"/>
              <path d="M66.65,80.51a208.37,208.37,0,0,0,37.71-9.21c9.82-3.26,19.38-6.73,27.91-12.38a64.61,64.61,0,0,0-1.59-8.84,65.43,65.43,0,0,0-3.91-11.15A13.15,13.15,0,0,0,123.29,41c-7.31,6-17.21,8.73-26,11.61-10.84,3.55-22,6.69-33.27,8.25-19.6,2.7-40,.28-56.61-11a9.38,9.38,0,0,0-4.85-1.71A66.33,66.33,0,0,0,0,66.35c0,.87,0,1.74.07,2.6C19.88,81.11,43.91,83.59,66.65,80.51Z" style="fill: #efa04b"/>
              <path d="M64,122.27c-12,1.65-24.26,1.38-35.79-1.64A66.25,66.25,0,0,0,97,125.16a66.68,66.68,0,0,0,23.72-20.87c-7,4.73-15.66,7.17-23.5,9.74C86.42,117.57,75.31,120.71,64,122.27Z" style="fill: #efa04b"/>
            </g>
            <path d="M74.55,72.82c-1.15-3.31-3.32-1.72-6-.6-.35.15-.71.29-1.08.41a6.92,6.92,0,0,1-2.17.38A7.14,7.14,0,0,1,63,72.59c-.36-.12-.72-.27-1.07-.42-2.62-1.12-4.74-2.61-5.88.65s1.32,5.08,4,6.06c.36.13.73.25,1.09.35a22.31,22.31,0,0,0,4.16.75,22.62,22.62,0,0,0,4-.72c.36-.1.73-.21,1.09-.34C73.16,78,75.71,76.15,74.55,72.82Z" style="fill: #fff"/>
            <path d="M29.91,65.63s5.43-14.38,14.41-1.78" style="fill: none;stroke: #1e120d;stroke-linecap: round;stroke-miterlimit: 10;stroke-width: 2.29273271560669px"/>
            <path d="M82.74,65.63s5.43-14.38,14.41-1.78" style="fill: none;stroke: #1e120d;stroke-linecap: round;stroke-miterlimit: 10;stroke-width: 2.29273271560669px"/>
          </g>
          <g style="mix-blend-mode: multiply">
            <path d="M103.28,11.22c.13.25.25.5.38.74A64.92,64.92,0,1,1,10,101.36a66.34,66.34,0,1,0,93.26-90.14Z" style="fill: #727176"/>
            <path d="M60.28,125.2A64.93,64.93,0,0,0,103.66,12,64.92,64.92,0,0,1,5.47,92.69,65.57,65.57,0,0,0,10,101.36,64.78,64.78,0,0,0,60.28,125.2Z" style="fill: #9a999e"/>
          </g>
        </g>
      </g>
    </g>
  </g>
</svg>
