<svg xmlns="http://www.w3.org/2000/svg" viewBox="0 0 86.37 86.37">
  <g id="Layer_2" data-name="Layer 2">
    <g id="Capa_1" data-name="Capa 1">
      <g>
        <g>
          <g>
            <path d="M67.2,7.29c.09.16.17.33.25.49A42.26,42.26,0,1,1,6.5,66,43.18,43.18,0,1,0,67.2,7.29Z" style="fill: #1d50aa"/>
            <path d="M39.22,81.48A42.25,42.25,0,0,0,67.45,7.78,42.25,42.25,0,0,1,3.54,60.32,42.58,42.58,0,0,0,6.5,66,42.18,42.18,0,0,0,39.22,81.48Z" style="fill: #255cd8"/>
            <path d="M67.45,7.78c-.08-.16-.16-.33-.25-.49C66.8,7,66.38,6.76,66,6.5,66.47,6.91,67,7.34,67.45,7.78Z" style="fill: #756977"/>
            <path d="M43.18,0A43.19,43.19,0,0,0,3.54,60.32,42.25,42.25,0,0,0,67.45,7.78c-.49-.44-1-.87-1.49-1.28A42.91,42.91,0,0,0,43.18,0Z" style="fill: #2b62ff"/>
          </g>
          <circle cx="23.27" cy="42.79" r="2.49" style="fill: #1e120d"/>
          <circle cx="63.26" cy="42.79" r="2.49" style="fill: #1e120d"/>
        </g>
        <path d="M39.74,42.79s-1.13,10.12,4.74,10.12,4.45-10.12,4.45-10.12Z" style="fill: #ff8db3"/>
      </g>
    </g>
  </g>
</svg>
