<svg xmlns="http://www.w3.org/2000/svg" viewBox="0 0 210.6 132.65">
  <g id="Layer_2" data-name="Layer 2">
    <g id="Capa_1" data-name="Capa 1">
      <g>
        <g>
          <path d="M142.18,11.2c.13.25.25.5.38.74a64.91,64.91,0,1,1-93.62,89.38A66.33,66.33,0,1,0,142.18,11.2Z" style="fill: #a0835d"/>
          <path d="M99.19,125.15A64.91,64.91,0,0,0,142.56,11.94,64.9,64.9,0,0,1,44.4,92.64a65.63,65.63,0,0,0,4.54,8.68A64.79,64.79,0,0,0,99.19,125.15Z" style="fill: #b59666"/>
          <path d="M142.56,11.94c-.13-.24-.25-.49-.38-.74L140.27,10C141.05,10.62,141.81,11.27,142.56,11.94Z" style="fill: #756977"/>
          <path d="M105.29,0A66.33,66.33,0,0,0,44.4,92.64a64.9,64.9,0,0,0,98.16-80.7c-.75-.67-1.51-1.32-2.29-2A66,66,0,0,0,105.29,0Z" style="fill: #e2be7d"/>
        </g>
        <circle cx="74.69" cy="65.72" r="3.83" style="fill: #1e120d"/>
        <circle cx="136.12" cy="65.72" r="3.83" style="fill: #1e120d"/>
        <circle cx="105.59" cy="70.89" r="5.16" style="fill: #ff8db3"/>
      </g>
      <path d="M170.44,53.88a66.55,66.55,0,0,1,1.12,9.86c2,1.62,3,3.34,3,5.12s-1.23,3.74-3.48,5.46c-9.11,7-35.13,12-65.82,12s-56.76-5-65.85-12C37.22,72.59,36,70.76,36,68.86s1.06-3.49,3-5.11a66.69,66.69,0,0,1,1.12-9.87C15.69,58.86,0,66.58,0,75.25,0,84.71,18.66,93,47,97.91a350.46,350.46,0,0,0,58.33,4.55,350.25,350.25,0,0,0,58.32-4.55c28.32-4.88,47-13.2,47-22.66C210.6,66.58,194.9,58.86,170.44,53.88Z" style="fill: #bcbc96"/>
    </g>
  </g>
</svg>
