<svg xmlns="http://www.w3.org/2000/svg" viewBox="0 0 167.69 85.44">
  <g id="Layer_2" data-name="Layer 2">
    <g id="Capa_1" data-name="Capa 1">
      <g>
        <g>
          <g>
            <path d="M108.58,7.22l.24.47A41.8,41.8,0,1,1,48.53,65.25a42.72,42.72,0,1,0,60.05-58Z" style="fill: #0088ad"/>
            <path d="M80.9,80.6A41.8,41.8,0,0,0,108.82,7.69a41.8,41.8,0,0,1-63.22,52,42.3,42.3,0,0,0,2.93,5.58A41.73,41.73,0,0,0,80.9,80.6Z" style="fill: #00a2db"/>
            <path d="M108.82,7.69l-.24-.47c-.4-.27-.81-.53-1.23-.79Q108.1,7,108.82,7.69Z" style="fill: #756977"/>
            <path d="M84.82,0A42.73,42.73,0,0,0,45.6,59.67a41.8,41.8,0,0,0,63.22-52q-.72-.65-1.47-1.26A42.51,42.51,0,0,0,84.82,0Z" style="fill: #02b0ff"/>
          </g>
          <circle cx="65.12" cy="42.33" r="2.47" style="fill: #1e120d"/>
          <circle cx="104.68" cy="42.33" r="2.47" style="fill: #1e120d"/>
          <path d="M84.15,51.5s7.39-.49,5.95-4.61c-1-2.94-3.29.12-5.95.12s-4.92-3.06-6-.12C76.77,51,84.15,51.5,84.15,51.5Z" style="fill: #fff"/>
        </g>
        <path d="M141.54,27.3C125.45,28.75,104.31,32,82,36.38S39,45.84,23.52,50.62C7.4,55.61-.5,59.5,0,62.17s9.32,3.27,26.12,1.75c16.1-1.45,37.24-4.67,59.53-9.08s43.06-9.46,58.5-14.24c16.12-5,24-8.88,23.49-11.55S158.35,25.79,141.54,27.3ZM31.69,49.43c7.44-2.29,16.32-4.67,26.06-7,7.79-1.81,16-3.57,24.44-5.23s16.7-3.17,24.59-4.46c9.88-1.57,19-2.76,26.75-3.46,15.64-1.43,21.5-.5,21.77.85s-4.8,4.44-19.81,9.06C122.17,43.33,104.24,47.69,85,51.49s-37.47,6.59-51.36,7.86c-15.64,1.43-21.49.49-21.76-.85S16.68,54.06,31.69,49.43Zm112.23-9.65C128.51,44.55,107.76,49.6,85.5,54s-43.37,7.61-59.43,9.06C8,64.69,1.18,63.59.87,62s4.74-4.68,19.33-9.43c-6.31,2.48-9.35,4.51-9,6.06.46,2.28,8,2.77,22.56,1.45C47.62,58.82,65.88,56,85.15,52.21s37.22-8.16,50.56-12.28C149.64,35.64,156.47,32.3,156,30c-.3-1.54-3.88-2.26-10.66-2.16,15.3-1.16,21.16-.1,21.45,1.37S161.27,34.4,143.92,39.78Z" style="fill: #0088ad"/>
        <g>
          <g>
            <path d="M108.58,7.22l.24.47A41.8,41.8,0,1,1,48.53,65.25a42.72,42.72,0,1,0,60.05-58Z" style="fill: #0088ad"/>
            <path d="M80.9,80.6A41.8,41.8,0,0,0,108.82,7.69a41.8,41.8,0,0,1-63.22,52,42.3,42.3,0,0,0,2.93,5.58A41.73,41.73,0,0,0,80.9,80.6Z" style="fill: #00a2db"/>
            <path d="M108.82,7.69l-.24-.47c-.4-.27-.81-.53-1.23-.79Q108.1,7,108.82,7.69Z" style="fill: #756977"/>
            <path d="M84.82,0A42.73,42.73,0,0,0,45.6,59.67a41.8,41.8,0,0,0,63.22-52q-.72-.65-1.47-1.26A42.51,42.51,0,0,0,84.82,0Z" style="fill: #02b0ff"/>
          </g>
          <circle cx="65.12" cy="42.33" r="2.47" style="fill: #1e120d"/>
          <circle cx="104.68" cy="42.33" r="2.47" style="fill: #1e120d"/>
          <path d="M84.15,51.5s7.39-.49,5.95-4.61c-1-2.94-3.29.12-5.95.12s-4.92-3.06-6-.12C76.77,51,84.15,51.5,84.15,51.5Z" style="fill: #fff"/>
        </g>
        <g>
          <path d="M167.66,29.05c-.53-2.67-9.31-3.26-26.12-1.75-5,.45-10.4,1.07-16.21,1.83.11.34.22.67.32,1,2.75-.32,5.39-.61,7.88-.83,15.64-1.43,21.5-.5,21.77.85s-4.8,4.44-19.81,9.06q-3.75,1.16-8,2.34c0,.25,0,.51,0,.76,2.88-.8,5.62-1.6,8.18-2.39C149.64,35.64,156.47,32.3,156,30c-.3-1.54-3.88-2.26-10.66-2.16,15.3-1.16,21.16-.1,21.45,1.37s-5.54,5.18-22.89,10.56c-5,1.53-10.49,3.1-16.43,4.66,0,.3,0,.6,0,.9,6-1.58,11.68-3.18,16.72-4.74C160.29,35.61,168.19,31.72,167.66,29.05Z" style="fill: #0088ad"/>
          <path d="M85.5,54c-13.91,2.74-27.36,5-39.42,6.71l.39.82c12-1.68,25.38-4,39.2-6.69,15-3,29.31-6.22,41.78-9.5,0-.3,0-.6,0-.9C115,47.73,100.59,51,85.5,54Z" style="fill: #0088ad"/>
          <path d="M45,58.1c.09.24.19.47.29.71,11.83-1.5,25.58-3.77,39.89-6.6,15.56-3.07,30.27-6.51,42.38-9.89,0-.25,0-.51,0-.76C115.39,45,100.63,48.4,85,51.49,70.63,54.33,56.82,56.6,45,58.1Z" style="fill: #0088ad"/>
        </g>
      </g>
    </g>
  </g>
</svg>
