<svg xmlns="http://www.w3.org/2000/svg" viewBox="0 0 82.77 82.77">
  <g id="Layer_2" data-name="Layer 2">
    <g id="Capa_1" data-name="Capa 1">
      <g>
        <g>
          <path d="M64.41,7l.23.46A40.5,40.5,0,1,1,6.23,63.22,41.39,41.39,0,1,0,64.41,7Z" style="fill: #4d454f"/>
          <path d="M37.59,78.09A40.5,40.5,0,0,0,64.64,7.45,40.5,40.5,0,0,1,3.39,57.81a42.14,42.14,0,0,0,2.84,5.41A40.43,40.43,0,0,0,37.59,78.09Z" style="fill: #625664"/>
          <path d="M64.64,7.45,64.41,7c-.39-.26-.79-.51-1.19-.76C63.7,6.63,64.18,7,64.64,7.45Z" style="fill: #756977"/>
          <path d="M41.39,0a41.4,41.4,0,0,0-38,57.81A40.5,40.5,0,0,0,64.64,7.45c-.46-.42-.94-.82-1.42-1.22A41.23,41.23,0,0,0,41.39,0Z" style="fill: #756977"/>
        </g>
        <g>
          <path d="M5.77,35.41a5.56,5.56,0,0,0,1,4A4.06,4.06,0,0,0,10.49,41a6.55,6.55,0,0,0,3.71-2.52,15.85,15.85,0,0,0,3.85-6.63,7.16,7.16,0,0,0-2-7.08,2.73,2.73,0,0,0-1.38-.68,3.19,3.19,0,0,0-2,.54,11.58,11.58,0,0,0-4,3.81" style="fill: none;stroke: #625664;stroke-linecap: round;stroke-linejoin: round;stroke-width: 1.430202869385px"/>
          <path d="M7.07,45.48,6.72,47.4" style="fill: none;stroke: #625664;stroke-linecap: round;stroke-linejoin: round;stroke-width: 1.430202869385px"/>
          <path d="M11.62,44.88a13.25,13.25,0,0,0,.06,2.52" style="fill: none;stroke: #625664;stroke-linecap: round;stroke-linejoin: round;stroke-width: 1.430202869385px"/>
          <path d="M16.53,42.24l.84.84" style="fill: none;stroke: #625664;stroke-linecap: round;stroke-linejoin: round;stroke-width: 1.430202869385px"/>
          <path d="M50.76,9.71a4.71,4.71,0,0,0,1.65,4,4.78,4.78,0,0,0,4.29.9,3.13,3.13,0,0,0,2.17-1.87,3.3,3.3,0,0,0-1-3.19A5.51,5.51,0,0,0,54.82,8" style="fill: none;stroke: #625664;stroke-linecap: round;stroke-linejoin: round;stroke-width: 1.430202869385px"/>
          <path d="M48.56,66A2.49,2.49,0,0,0,49,68.73a3.63,3.63,0,0,0,2.63,1.16,6.77,6.77,0,0,0,2.86-.63A7.55,7.55,0,0,0,57,67.59a4.24,4.24,0,0,0,1.22-2.77,2.06,2.06,0,0,0-.72-1.72,2.49,2.49,0,0,0-.92-.34,7.66,7.66,0,0,0-2.39-.1" style="fill: none;stroke: #4d454f;stroke-linecap: round;stroke-linejoin: round;stroke-width: 1.430202869385px"/>
        </g>
        <circle cx="22.3" cy="41.01" r="2.39" style="fill: #1e120d"/>
        <circle cx="60.63" cy="41.01" r="2.39" style="fill: #1e120d"/>
        <path d="M40.74,49.89s7.16-.47,5.76-4.47c-1-2.84-3.18.13-5.76.13s-4.77-3-5.76-.13C33.59,49.42,40.74,49.89,40.74,49.89Z" style="fill: #fff"/>
      </g>
    </g>
  </g>
</svg>
