<svg xmlns="http://www.w3.org/2000/svg" viewBox="0 0 94.65 94.65">
  <g id="Layer_2" data-name="Layer 2">
    <g id="Capa_1" data-name="Capa 1">
      <g>
        <g>
          <path d="M73.64,8c.1.18.18.36.27.53A46.31,46.31,0,1,1,7.12,72.29,47.33,47.33,0,1,0,73.64,8Z" style="fill: #9e5f20"/>
          <path d="M43,89.29A46.31,46.31,0,0,0,73.91,8.52a46.29,46.29,0,0,1-41,67.8,46.12,46.12,0,0,1-29-10.22,47.86,47.86,0,0,0,3.24,6.19A46.25,46.25,0,0,0,43,89.29Z" style="fill: #ba7321"/>
          <path d="M73.91,8.52c-.09-.17-.17-.35-.27-.53-.44-.3-.9-.58-1.35-.87C72.84,7.58,73.38,8,73.91,8.52Z" style="fill: #756977"/>
          <path d="M47.32,0A47.33,47.33,0,0,0,3.88,66.1,46.31,46.31,0,0,0,79.21,30a46,46,0,0,0-5.3-21.49c-.53-.48-1.07-.94-1.62-1.4A47.1,47.1,0,0,0,47.32,0Z" style="fill: #d39e34"/>
        </g>
        <circle cx="25.5" cy="46.89" r="2.73" style="fill: #1e120d"/>
        <circle cx="69.33" cy="46.89" r="2.73" style="fill: #1e120d"/>
        <g>
          <path d="M46.58,52.08a5.34,5.34,0,0,1-1.63-.3l-1.33,4.73a16.28,16.28,0,0,0,3,.54,16.15,16.15,0,0,0,2.89-.51L48.13,51.8A4.77,4.77,0,0,1,46.58,52.08Z" style="fill: #fff"/>
          <path d="M40,51.94c-.81,2.34.94,3.63,2.85,4.32l1.35-4.78C42.32,50.68,40.8,49.61,40,51.94Z" style="fill: #fff"/>
          <path d="M53.17,51.94c-.82-2.36-2.36-1.23-4.27-.43l1.35,4.78C52.18,55.6,54,54.32,53.17,51.94Z" style="fill: #fff"/>
          <path d="M44.19,51.48l-1.35,4.78c.26.09.52.18.78.25L45,51.78C44.69,51.69,44.44,51.59,44.19,51.48Z" style="fill: #211915"/>
          <path d="M48.13,51.8l1.34,4.74.78-.25L48.9,51.51A7.15,7.15,0,0,1,48.13,51.8Z" style="fill: #211915"/>
        </g>
        <g>
          <path d="M8,48.08c.18,1.11.53,2.37,1.56,2.83a2.4,2.4,0,0,0,2.67-.83,6.19,6.19,0,0,0,1.11-2.74,5.37,5.37,0,0,0,0-2.84,2,2,0,0,0-2.22-1.38" style="fill: none;stroke: #ba7321;stroke-linecap: round;stroke-miterlimit: 10;stroke-width: 1.63532602787018px"/>
          <path d="M38,6.34c-1.28.94-2.72,2.32-2.26,3.84a3.39,3.39,0,0,0,2.38,2,12,12,0,0,0,10.66-1.61,3.94,3.94,0,0,0,1.88-2.71A3.17,3.17,0,0,0,48.81,5a9.4,9.4,0,0,0-3.43-.84" style="fill: none;stroke: #ba7321;stroke-linecap: round;stroke-miterlimit: 10;stroke-width: 1.63532602787018px"/>
          <path d="M40.75,23.35a2.8,2.8,0,0,0,3.7,1.81,4.59,4.59,0,0,0,2.62-3.64A2.25,2.25,0,0,0,47,20.21c-.38-.83-1.45-1.05-2.36-1.15" style="fill: none;stroke: #ba7321;stroke-linecap: round;stroke-miterlimit: 10;stroke-width: 1.63532602787018px"/>
          <path d="M68.69,24.38c-1.24.92-.86,3.13.51,3.84a3.31,3.31,0,0,0,4-1.23" style="fill: none;stroke: #ba7321;stroke-linecap: round;stroke-miterlimit: 10;stroke-width: 1.63532602787018px"/>
          <line x1="9.86" y1="53.79" x2="9.86" y2="57.05" style="fill: none;stroke: #ba7321;stroke-linecap: round;stroke-miterlimit: 10;stroke-width: 1.63532602787018px"/>
          <line x1="7.12" y1="52.96" x2="5.45" y2="55.42" style="fill: none;stroke: #ba7321;stroke-linecap: round;stroke-miterlimit: 10;stroke-width: 1.63532602787018px"/>
          <line x1="53.38" y1="7.99" x2="57.67" y2="9.71" style="fill: none;stroke: #ba7321;stroke-linecap: round;stroke-miterlimit: 10;stroke-width: 1.63532602787018px"/>
          <line x1="33.11" y1="8.43" x2="28.23" y2="10.57" style="fill: none;stroke: #ba7321;stroke-linecap: round;stroke-miterlimit: 10;stroke-width: 1.63532602787018px"/>
          <line x1="33.11" y1="12.73" x2="29.87" y2="14.47" style="fill: none;stroke: #ba7321;stroke-linecap: round;stroke-miterlimit: 10;stroke-width: 1.63532602787018px"/>
          <line x1="73.91" y1="29.73" x2="76.49" y2="31.77" style="fill: none;stroke: #ba7321;stroke-linecap: round;stroke-miterlimit: 10;stroke-width: 1.63532602787018px"/>
        </g>
      </g>
    </g>
  </g>
</svg>
