<svg xmlns="http://www.w3.org/2000/svg" viewBox="0 0 209.79 209.79">
  <g id="Layer_2" data-name="Layer 2">
    <g id="Capa_1" data-name="Capa 1">
      <g>
        <polygon points="104.9 19.93 121.51 0 131.15 24.09 153.11 10.27 154.84 36.16 180 29.8 173.63 54.96 199.53 56.68 185.7 78.64 209.79 88.28 189.86 104.9 209.79 121.51 185.7 131.15 199.53 153.11 173.63 154.84 180 180 154.84 173.63 153.11 199.53 131.15 185.7 121.51 209.79 104.9 189.86 88.28 209.79 78.64 185.7 56.68 199.53 54.96 173.63 29.8 180 36.16 154.84 10.27 153.11 24.09 131.15 0 121.51 19.93 104.9 0 88.28 24.09 78.64 10.27 56.68 36.16 54.96 29.8 29.8 54.96 36.16 56.68 10.27 78.64 24.09 88.28 0 104.9 19.93" style="fill: #ffd130"/>
        <polygon points="84.02 38.69 92.07 19.07 105.5 35.48 119.22 19.31 126.92 39.06 144.97 27.92 146.19 49.09 166.79 44.07 161.41 64.58 182.56 66.17 171.11 84.02 190.72 92.07 174.32 105.5 190.49 119.22 170.73 126.92 181.87 144.97 160.71 146.19 165.72 166.79 145.21 161.41 143.62 182.56 125.78 171.11 117.73 190.72 104.29 174.32 90.58 190.49 82.87 170.73 64.83 181.87 63.6 160.71 43 165.72 48.38 145.21 27.24 143.62 38.69 125.78 19.07 117.73 35.48 104.29 19.31 90.58 39.06 82.87 27.92 64.83 49.09 63.6 44.07 43 64.58 48.38 66.17 27.24 84.02 38.69" style="fill: #ffb00d"/>
        <g>
          <g>
            <g>
              <path d="M147.49,43.68c.15.27.28.55.42.83A72.88,72.88,0,1,1,42.79,144.87,74.48,74.48,0,1,0,147.49,43.68Z" style="fill: #bfa63d"/>
              <path d="M99.22,171.63A72.88,72.88,0,0,0,147.91,44.51,72.88,72.88,0,0,1,37.68,135.13a75.14,75.14,0,0,0,5.11,9.74A72.75,72.75,0,0,0,99.22,171.63Z" style="fill: #ddc666"/>
              <path d="M147.91,44.51c-.14-.28-.27-.56-.42-.83-.7-.47-1.42-.93-2.14-1.37C146.22,43,147.08,43.76,147.91,44.51Z" style="fill: #756977"/>
              <path d="M106.06,31.1a74.5,74.5,0,0,0-68.38,104A72.88,72.88,0,0,0,147.91,44.51c-.83-.75-1.69-1.49-2.56-2.2A74.1,74.1,0,0,0,106.06,31.1Z" style="fill: #ffe877"/>
            </g>
            <circle cx="71.71" cy="104.9" r="4.3" style="fill: #1e120d"/>
            <circle cx="140.69" cy="104.9" r="4.3" style="fill: #1e120d"/>
          </g>
          <path d="M83.43,114.76s18.57,27.08,42.94,0" style="fill: none;stroke: #1e120d;stroke-linecap: round;stroke-miterlimit: 10;stroke-width: 2.29273271560669px"/>
        </g>
      </g>
    </g>
  </g>
</svg>
